# xmcd
#
# Track frame offsets:
#	150
#	15154
#	34977
#	51235
#	71364
#	85793
#	103681
#	123760
#	139720
#	153929
#	166244
#	185270
#
# Disc length: 2718 seconds
#
# Revision: 2590063210
# Processed by: cddbd v1.5.2PL0 Copyright (c) Steve Scherf et al.
# Submitted via: EZCDAudioConverter 8.0.7.1
#
DISCID=8b0a9c0c
DTITLE=Blackie And The Rodeo Kings - South
DYEAR=2014
DGENRE=Country
TTITLE0=North
TTITLE1=South
TTITLE2=Gotta Stay Young
TTITLE3=I'd Have To Be A Stone
TTITLE4=Blow Me A Kiss
TTITLE5=Summertime's Over
TTITLE6=Everything I Am
TTITLE7=I'm Still Loving You
TTITLE8=Reinventing The Wheel Of Love
TTITLE9=Try Try Try Again
TTITLE10=Fleur De Lys
TTITLE11=Driftin Snow
EXTD=
EXTT0=
EXTT1=
EXTT2=
EXTT3=
EXTT4=
EXTT5=
EXTT6=
EXTT7=
EXTT8=
EXTT9=
EXTT10=
EXTT11=
PLAYORDER=
